<?xml version="1.0" encoding="UTF-8" standalone="no"?>
<!DOCTYPE svg PUBLIC "-//W3C//DTD SVG 1.0//EN" "http://www.w3.org/TR/2001/PR-SVG-20010719/DTD/svg10.dtd">
<svg width="29cm" height="10cm" viewBox="459 225 561 188" xmlns="http://www.w3.org/2000/svg" xmlns:xlink="http://www.w3.org/1999/xlink">
  <g>
    <rect style="fill: #0077c8" x="655.614" y="226.068" width="198.3" height="52" rx="10" ry="10"/>
    <rect style="fill: none; fill-opacity:0; stroke-width: 2; stroke: #0077c8" x="655.614" y="226.068" width="198.3" height="52" rx="10" ry="10"/>
    <text font-size="12.8" style="fill: #ffffff;text-anchor:middle;font-family:sans-serif;font-style:normal;font-weight:normal" x="754.764" y="249.751">
      <tspan x="754.764" y="249.751">CXX-Qt Bridge</tspan>
      <tspan x="754.764" y="265.751">Qt/Rust boundary description</tspan>
    </text>
  </g>
  <g>
    <rect style="fill: #0077c8" x="872.432" y="367.988" width="145.95" height="36" rx="10" ry="10"/>
    <rect style="fill: none; fill-opacity:0; stroke-width: 2; stroke: #0077c8" x="872.432" y="367.988" width="145.95" height="36" rx="10" ry="10"/>
    <text font-size="12.8" style="fill: #ffffff;text-anchor:middle;font-family:sans-serif;font-style:normal;font-weight:normal" x="945.407" y="391.672">
      <tspan x="945.407" y="391.672">Rust implementation</tspan>
    </text>
  </g>
  <g>
    <rect style="fill: #0077c8" x="460" y="360" width="155.5" height="52" rx="10" ry="10"/>
    <rect style="fill: none; fill-opacity:0; stroke-width: 2; stroke: #0077c8" x="460" y="360" width="155.5" height="52" rx="10" ry="10"/>
    <text font-size="12.8" style="fill: #ffffff;text-anchor:middle;font-family:sans-serif;font-style:normal;font-weight:normal" x="537.75" y="383.683">
      <tspan x="537.75" y="383.683">QObject subclasses</tspan>
      <tspan x="537.75" y="399.683">Qt-side representation</tspan>
    </text>
  </g>
  <g>
    <polyline style="fill: none; fill-opacity:0; stroke-width: 2; stroke-dasharray: 20; stroke: #000000" points="627.51,386 744.471,386 744.471,385.988 862.696,385.988 "/>
    <polygon style="fill: #000000" points="627.51,381 617.51,386 627.51,391 "/>
    <polygon style="fill: none; fill-opacity:0; stroke-width: 2; stroke: #000000" points="627.51,381 617.51,386 627.51,391 "/>
    <polygon style="fill: #000000" points="870.196,385.988 860.196,390.988 862.696,385.988 860.196,380.988 "/>
    <polygon style="fill: none; fill-opacity:0; stroke-width: 2; stroke: #000000" points="870.196,385.988 860.196,390.988 862.696,385.988 860.196,380.988 "/>
  </g>
  <g>
    <polyline style="fill: none; fill-opacity:0; stroke-width: 2; stroke: #000000" points="754.764,278.068 754.764,320 945.407,320 945.407,363.516 "/>
    <polyline style="fill: none; fill-opacity:0; stroke-width: 2; stroke: #000000" points="940.407,355.752 945.407,365.752 950.407,355.752 "/>
  </g>
  <g>
    <polyline style="fill: none; fill-opacity:0; stroke-width: 2; stroke: #000000" points="754.764,279.035 754.764,320 537.75,320 537.75,355.528 "/>
    <polyline style="fill: none; fill-opacity:0; stroke-width: 2; stroke: #000000" points="532.75,347.764 537.75,357.764 542.75,347.764 "/>
  </g>
  <text font-size="12.8" style="fill: #000000;text-anchor:start;font-family:sans-serif;font-style:normal;font-weight:normal" x="681.682" y="407.988">
    <tspan x="681.682" y="407.988">Safe Interop using CXX</tspan>
  </text>
  <text font-size="12.8" style="fill: #000000;text-anchor:start;font-family:sans-serif;font-style:normal;font-weight:normal" x="820.42" y="309.67">
    <tspan x="820.42" y="309.67">Macro expansion</tspan>
  </text>
  <text font-size="12.8" style="fill: #000000;text-anchor:start;font-family:sans-serif;font-style:normal;font-weight:normal" x="577.477" y="309.67">
    <tspan x="577.477" y="309.67">Code generation</tspan>
  </text>
  <text font-size="12.7998" style="fill: #000000;text-anchor:start;font-family:sans-serif;font-style:normal;font-weight:normal" x="754.764" y="252.068">
    <tspan x="754.764" y="252.068"></tspan>
  </text>
</svg>
