<?xml version="1.0" encoding="UTF-8" standalone="no"?>
<!DOCTYPE svg PUBLIC "-//W3C//DTD SVG 1.1//EN"
 "http://www.w3.org/Graphics/SVG/1.1/DTD/svg11.dtd">
<!-- Generated by graphviz version 2.43.0 (0)
 -->
<!-- Title: %3 Pages: 1 -->
<svg width="575pt" height="158pt"
 viewBox="0.00 0.00 574.50 158.00" xmlns="http://www.w3.org/2000/svg" xmlns:xlink="http://www.w3.org/1999/xlink">
<g id="graph0" class="graph" transform="scale(1 1) rotate(0) translate(4 154)">
<title>%3</title>
<polygon fill="white" stroke="transparent" points="-4,4 -4,-154 570.5,-154 570.5,4 -4,4"/>
<!-- rust -->
<g id="node1" class="node">
<title>rust</title>
<path fill="#0077c8" stroke="#0077c8" d="M149,-37C149,-37 12,-37 12,-37 6,-37 0,-31 0,-25 0,-25 0,-13 0,-13 0,-7 6,-1 12,-1 12,-1 149,-1 149,-1 155,-1 161,-7 161,-13 161,-13 161,-25 161,-25 161,-31 155,-37 149,-37"/>
<text text-anchor="middle" x="80.5" y="-15.3" font-family="sans-serif" font-size="14.00" fill="white">Rust implementation</text>
</g>
<!-- qobject -->
<g id="node3" class="node">
<title>qobject</title>
<path fill="#0077c8" stroke="#0077c8" d="M554.5,-38C554.5,-38 406.5,-38 406.5,-38 400.5,-38 394.5,-32 394.5,-26 394.5,-26 394.5,-12 394.5,-12 394.5,-6 400.5,0 406.5,0 406.5,0 554.5,0 554.5,0 560.5,0 566.5,-6 566.5,-12 566.5,-12 566.5,-26 566.5,-26 566.5,-32 560.5,-38 554.5,-38"/>
<text text-anchor="middle" x="480.5" y="-22.8" font-family="sans-serif" font-size="14.00" fill="white">QObject subclasses</text>
<text text-anchor="middle" x="480.5" y="-7.8" font-family="sans-serif" font-size="14.00" fill="white">Qt&#45;side representation</text>
</g>
<!-- rust&#45;&gt;qobject -->
<!-- rust&#45;&gt;qobject -->
<g id="edge9" class="edge">
<title>rust&#45;&gt;qobject</title>
<path fill="none" stroke="black" stroke-dasharray="5,2" d="M171.56,-19C235.07,-19 319.68,-19 384.29,-19"/>
<polygon fill="black" stroke="black" points="171.45,-15.5 161.45,-19 171.45,-22.5 171.45,-15.5"/>
<polygon fill="black" stroke="black" points="384.49,-22.5 394.49,-19 384.49,-15.5 384.49,-22.5"/>
<text text-anchor="middle" x="277.75" y="-25.8" font-family="sans-serif" font-size="14.00">Safe Interop using CXX</text>
</g>
<!-- bridge -->
<g id="node2" class="node">
<title>bridge</title>
<path fill="#0077c8" stroke="#0077c8" d="M380,-150C380,-150 183,-150 183,-150 177,-150 171,-144 171,-138 171,-138 171,-124 171,-124 171,-118 177,-112 183,-112 183,-112 380,-112 380,-112 386,-112 392,-118 392,-124 392,-124 392,-138 392,-138 392,-144 386,-150 380,-150"/>
<text text-anchor="middle" x="281.5" y="-134.8" font-family="sans-serif" font-size="14.00" fill="white">CXX&#45;Qt Bridge</text>
<text text-anchor="middle" x="281.5" y="-119.8" font-family="sans-serif" font-size="14.00" fill="white">Qt/Rust boundary description</text>
</g>
<!-- center -->
<!-- bridge&#45;&gt;center -->
<g id="edge4" class="edge">
<title>bridge&#45;&gt;center</title>
<path fill="none" stroke="black" d="M281.5,-111.72C281.5,-96.54 281.5,-77.25 281.5,-76.06"/>
</g>
<!-- left -->
<!-- left&#45;&gt;rust -->
<g id="edge7" class="edge">
<title>left&#45;&gt;rust</title>
<path fill="none" stroke="black" d="M80.5,-73.85C80.5,-72.33 80.5,-59.9 80.5,-47.37"/>
<polygon fill="black" stroke="black" points="84,-47.06 80.5,-37.06 77,-47.06 84,-47.06"/>
</g>
<!-- left&#45;&gt;center -->
<!-- center&#45;&gt;left -->
<g id="edge5" class="edge">
<title>center&#45;&gt;left</title>
<path fill="none" stroke="black" d="M281.36,-75C275.46,-75 86.64,-75 80.65,-75"/>
<text text-anchor="middle" x="181" y="-81.8" font-family="sans-serif" font-size="14.00">Macro Expansion</text>
</g>
<!-- right -->
<!-- center&#45;&gt;right -->
<!-- center&#45;&gt;right -->
<g id="edge6" class="edge">
<title>center&#45;&gt;right</title>
<path fill="none" stroke="black" d="M281.64,-75C287.58,-75 474.52,-75 480.36,-75"/>
<text text-anchor="middle" x="381" y="-81.8" font-family="sans-serif" font-size="14.00">Code Generation</text>
</g>
<!-- right&#45;&gt;qobject -->
<g id="edge8" class="edge">
<title>right&#45;&gt;qobject</title>
<path fill="none" stroke="black" d="M480.5,-73.85C480.5,-72.37 480.5,-60.53 480.5,-48.33"/>
<polygon fill="black" stroke="black" points="484,-48.22 480.5,-38.22 477,-48.22 484,-48.22"/>
</g>
</g>
</svg>
