<?xml version="1.0" encoding="UTF-8" standalone="no"?>
<!DOCTYPE svg PUBLIC "-//W3C//DTD SVG 1.0//EN" "http://www.w3.org/TR/2001/PR-SVG-20010719/DTD/svg10.dtd">
<svg width="57cm" height="33cm" viewBox="137 157 1121 642" xmlns="http://www.w3.org/2000/svg" xmlns:xlink="http://www.w3.org/1999/xlink">
  <g id="Background">
    <g>
      <rect style="fill: #f02567; fill-opacity: 1; stroke-opacity: 1; stroke-width: 2; stroke: #f02567" x="619.95" y="514" width="102.05" height="38" rx="0" ry="0"/>
      <text font-size="12.8" style="fill: #ffffff; fill-opacity: 1; stroke: none;text-anchor:middle;font-family:sans-serif;font-style:normal;font-weight:normal" x="670.975" y="536.881">
        <tspan x="670.975" y="536.881">Lock rustObj</tspan>
      </text>
    </g>
    <g>
      <rect style="fill: #b921b4; fill-opacity: 1; stroke-opacity: 1; stroke-width: 2; stroke: #b921b4" x="611" y="601.999" width="120" height="38.002" rx="0" ry="0"/>
      <text font-size="12.8016" style="fill: #ffffff; fill-opacity: 1; stroke: none;text-anchor:middle;font-family:sans-serif;font-style:normal;font-weight:normal" x="671" y="624.882">
        <tspan x="671" y="624.882">Call rust code</tspan>
      </text>
    </g>
    <g>
      <rect style="fill: #f02567; fill-opacity: 1; stroke-opacity: 1; stroke-width: 2; stroke: #f02567" x="403.95" y="602" width="116.15" height="38" rx="0" ry="0"/>
      <text font-size="12.8" style="fill: #ffffff; fill-opacity: 1; stroke: none;text-anchor:middle;font-family:sans-serif;font-style:normal;font-weight:normal" x="462.025" y="624.881">
        <tspan x="462.025" y="624.881">Unlock rustObj</tspan>
      </text>
    </g>
    <g>
      <rect style="fill: #0cf2a6; fill-opacity: 1; stroke-opacity: 1; stroke-width: 2; stroke: #0cf2a6" x="421.676" y="514" width="79.9" height="38" rx="0" ry="0"/>
      <text font-size="12.8" style="fill: #000000; fill-opacity: 1; stroke: none;text-anchor:middle;font-family:sans-serif;font-style:normal;font-weight:normal" x="461.626" y="536.881">
        <tspan x="461.626" y="536.881">C++ Idle</tspan>
      </text>
    </g>
    <g>
      <rect style="fill: #626875; fill-opacity: 1; stroke-opacity: 1; stroke-width: 2; stroke: #626875" x="209.9" y="648" width="121.45" height="38" rx="0" ry="0"/>
      <text font-size="12.8" style="fill: #ffffff; fill-opacity: 1; stroke: none;text-anchor:middle;font-family:sans-serif;font-style:normal;font-weight:normal" x="270.625" y="670.881">
        <tspan x="270.625" y="670.881">Process queues</tspan>
      </text>
    </g>
    <g>
      <path style="fill: #626875; fill-opacity: 1; stroke-opacity: 1; stroke-width: 2; stroke: #626875" fill-rule="evenodd" d="M 438.924 166.333 C 448.544,160.833 453.354,159 462.974,159 C 472.594,159 477.404,160.833 487.024,166.333 L 487.024,195.667 C 477.404,201.167 472.594,203 462.974,203 C 453.354,203 448.544,201.167 438.924,195.667 L 438.924,166.333z"/>
      <path style="fill: none; stroke-opacity: 1; stroke-width: 2; stroke: #626875" d="M 438.924 166.333 C 448.544,171.833 453.354,173.667 462.974,173.667 C 472.594,173.667 477.404,171.833 487.024,166.333"/>
      <text font-size="12.8" style="fill: #ffffff; fill-opacity: 1; stroke: none;text-anchor:middle;font-family:sans-serif;font-style:normal;font-weight:normal" x="462.974" y="188.548">
        <tspan x="462.974" y="188.548">Queue</tspan>
      </text>
    </g>
    <g>
      <rect style="fill: #626875; fill-opacity: 1; stroke-opacity: 1; stroke-width: 2; stroke: #626875" x="782.924" y="602" width="111.8" height="38" rx="0" ry="0"/>
      <text font-size="12.8" style="fill: #ffffff; fill-opacity: 1; stroke: none;text-anchor:middle;font-family:sans-serif;font-style:normal;font-weight:normal" x="838.824" y="624.881">
        <tspan x="838.824" y="624.881">Post to Queue</tspan>
      </text>
    </g>
    <g>
      <rect style="fill: #005896; fill-opacity: 1; stroke-opacity: 1; stroke-width: 2; stroke: #005896" x="747.95" y="664" width="97.3" height="38" rx="0" ry="0"/>
      <text font-size="12.8" style="fill: #ffffff; fill-opacity: 1; stroke: none;text-anchor:middle;font-family:sans-serif;font-style:normal;font-weight:normal" x="796.6" y="686.881">
        <tspan x="796.6" y="686.881">Call to C++</tspan>
      </text>
    </g>
    <g>
      <rect style="fill: #f02567; fill-opacity: 1; stroke-opacity: 1; stroke-width: 2; stroke: #f02567" x="219.95" y="514" width="102.05" height="38" rx="0" ry="0"/>
      <text font-size="12.8" style="fill: #ffffff; fill-opacity: 1; stroke: none;text-anchor:middle;font-family:sans-serif;font-style:normal;font-weight:normal" x="270.975" y="536.881">
        <tspan x="270.975" y="536.881">Lock rustObj</tspan>
      </text>
    </g>
    <g>
      <rect style="fill: #005896; fill-opacity: 1; stroke-opacity: 1; stroke-width: 2; stroke: #005896" x="320" y="426" width="100" height="38" rx="0" ry="0"/>
      <text font-size="12.8" style="fill: #ffffff; fill-opacity: 1; stroke: none;text-anchor:middle;font-family:sans-serif;font-style:normal;font-weight:normal" x="370" y="448.881">
        <tspan x="370" y="448.881">Event Loop</tspan>
      </text>
    </g>
    <g>
      <polyline style="fill: none; stroke-opacity: 1; stroke-width: 2; stroke-dasharray: 4; stroke: #000000" points="838.824,602 838.824,186.5 491.496,186.5 "/>
      <polyline style="fill: none; stroke-opacity: 1; stroke-width: 2; stroke: #000000" points="499.26,181.5 489.26,186.5 499.26,191.5 "/>
    </g>
    <g>
      <polyline style="fill: none; stroke-opacity: 1; stroke-width: 2; stroke-dasharray: 4; stroke: #000000" points="438.924,177.333 166,177.333 166,667 205.428,667 "/>
      <polyline style="fill: none; stroke-opacity: 1; stroke-width: 2; stroke: #000000" points="197.664,672 207.664,667 197.664,662 "/>
    </g>
    <g>
      <polyline style="fill: none; stroke-opacity: 1; stroke-width: 2; stroke: #000000" points="461.626,514 461.626,445 431,445 "/>
      <polygon style="fill: #000000; fill-opacity: 1; stroke-opacity: 1; stroke-width: 2; stroke: #000000" fill-rule="evenodd" points="431,440 421,445 431,450 "/>
    </g>
    <g>
      <polyline style="fill: none; stroke-opacity: 1; stroke-width: 2; stroke: #000000" points="461.626,514 461.626,445 488.85,445 "/>
      <polygon style="fill: #000000; fill-opacity: 1; stroke-opacity: 1; stroke-width: 2; stroke: #000000" fill-rule="evenodd" points="488.85,450 498.85,445 488.85,440 "/>
    </g>
    <g>
      <polyline style="fill: none; stroke-opacity: 1; stroke-width: 2; stroke: #000000" points="618.35,445 670.975,445 670.975,503 "/>
      <polygon style="fill: #000000; fill-opacity: 1; stroke-opacity: 1; stroke-width: 2; stroke: #000000" fill-rule="evenodd" points="665.975,503 670.975,513 675.975,503 "/>
    </g>
    <g>
      <polyline style="fill: none; stroke-opacity: 1; stroke-width: 2; stroke: #000000" points="670.975,552 670.975,577 671,577 671,591 "/>
      <polygon style="fill: #000000; fill-opacity: 1; stroke-opacity: 1; stroke-width: 2; stroke: #000000" fill-rule="evenodd" points="666,591 671,601 676,591 "/>
    </g>
    <g>
      <polyline style="fill: none; stroke-opacity: 1; stroke-width: 2; stroke: #000000" points="782.924,621 756.962,621 756.962,621 742,621 "/>
      <polygon style="fill: #000000; fill-opacity: 1; stroke-opacity: 1; stroke-width: 2; stroke: #000000" fill-rule="evenodd" points="742,616 732,621 742,626 "/>
    </g>
    <g>
      <polyline style="fill: none; stroke-opacity: 1; stroke-width: 2; stroke: #000000" points="701,640 701,683 736.95,683 "/>
      <polygon style="fill: #000000; fill-opacity: 1; stroke-opacity: 1; stroke-width: 2; stroke: #000000" fill-rule="evenodd" points="736.95,688 746.95,683 736.95,678 "/>
    </g>
    <g>
      <polyline style="fill: none; stroke-opacity: 1; stroke-width: 2; stroke: #000000" points="845.25,683 866.774,683 866.774,651 "/>
      <polygon style="fill: #000000; fill-opacity: 1; stroke-opacity: 1; stroke-width: 2; stroke: #000000" fill-rule="evenodd" points="871.774,651 866.774,641 861.774,651 "/>
    </g>
    <g>
      <polyline style="fill: none; stroke-opacity: 1; stroke-width: 2; stroke: #000000" points="611,621 565.55,621 565.55,621 531.1,621 "/>
      <polygon style="fill: #000000; fill-opacity: 1; stroke-opacity: 1; stroke-width: 2; stroke: #000000" fill-rule="evenodd" points="531.1,616 521.1,621 531.1,626 "/>
    </g>
    <g>
      <polyline style="fill: none; stroke-opacity: 1; stroke-width: 2; stroke: #000000" points="462.025,602 462.025,577 461.626,577 461.626,563 "/>
      <polygon style="fill: #000000; fill-opacity: 1; stroke-opacity: 1; stroke-width: 2; stroke: #000000" fill-rule="evenodd" points="466.626,563 461.626,553 456.626,563 "/>
    </g>
    <g>
      <polyline style="fill: none; stroke-opacity: 1; stroke-width: 2; stroke: #000000" points="331.35,667 641,667 641,651 "/>
      <polygon style="fill: #000000; fill-opacity: 1; stroke-opacity: 1; stroke-width: 2; stroke: #000000" fill-rule="evenodd" points="646,651 641,641 636,651 "/>
    </g>
    <g>
      <polyline style="fill: none; stroke-opacity: 1; stroke-width: 2; stroke: #000000" points="270.975,552 270.975,600 270.625,600 270.625,637 "/>
      <polygon style="fill: #000000; fill-opacity: 1; stroke-opacity: 1; stroke-width: 2; stroke: #000000" fill-rule="evenodd" points="265.625,637 270.625,647 275.625,637 "/>
    </g>
    <g>
      <rect style="fill: #005896; fill-opacity: 1; stroke-opacity: 1; stroke-width: 2; stroke: #005896" x="499.85" y="426" width="118.5" height="38" rx="0" ry="0"/>
      <text font-size="12.8" style="fill: #ffffff; fill-opacity: 1; stroke: none;text-anchor:middle;font-family:sans-serif;font-style:normal;font-weight:normal" x="559.1" y="448.881">
        <tspan x="559.1" y="448.881">C++ Invokable</tspan>
      </text>
    </g>
    <g>
      <polyline style="fill: none; stroke-opacity: 1; stroke-width: 2; stroke: #000000" points="320,445 270.975,445 270.975,503 "/>
      <polygon style="fill: #000000; fill-opacity: 1; stroke-opacity: 1; stroke-width: 2; stroke: #000000" fill-rule="evenodd" points="265.975,503 270.975,513 275.975,503 "/>
    </g>
    <g>
      <rect style="fill: #005896; fill-opacity: 1; stroke-opacity: 1; stroke-width: 2; stroke: #005896" x="504.994" y="349" width="154.012" height="38" rx="0" ry="0"/>
      <text font-size="12.8" style="fill: #ffffff; fill-opacity: 1; stroke: none;text-anchor:middle;font-family:sans-serif;font-style:normal;font-weight:normal" x="582" y="371.881">
        <tspan x="582" y="371.881">C++ Property Setter</tspan>
      </text>
    </g>
    <g>
      <rect style="fill: #626875; fill-opacity: 1; stroke-opacity: 1; stroke-width: 2; stroke: #626875" x="407.326" y="236.2" width="111.8" height="38" rx="0" ry="0"/>
      <text font-size="12.8" style="fill: #ffffff; fill-opacity: 1; stroke: none;text-anchor:middle;font-family:sans-serif;font-style:normal;font-weight:normal" x="463.226" y="259.081">
        <tspan x="463.226" y="259.081">Post to Queue</tspan>
      </text>
    </g>
    <g>
      <rect style="fill: #005896; fill-opacity: 1; stroke-opacity: 1; stroke-width: 2; stroke: #005896" x="271.124" y="349.2" width="148.95" height="38" rx="0" ry="0"/>
      <text font-size="12.8" style="fill: #ffffff; fill-opacity: 1; stroke: none;text-anchor:middle;font-family:sans-serif;font-style:normal;font-weight:normal" x="345.599" y="372.081">
        <tspan x="345.599" y="372.081">C++ Signal Change</tspan>
      </text>
    </g>
    <g>
      <rect style="fill: #0cf2a6; fill-opacity: 1; stroke-opacity: 1; stroke-width: 2; stroke: #0cf2a6" x="423.052" y="303" width="79.9" height="38" rx="0" ry="0"/>
      <text font-size="12.8" style="fill: #000000; fill-opacity: 1; stroke: none;text-anchor:middle;font-family:sans-serif;font-style:normal;font-weight:normal" x="463.002" y="325.881">
        <tspan x="463.002" y="325.881">C++ Idle</tspan>
      </text>
    </g>
    <g>
      <polyline style="fill: none; stroke-opacity: 1; stroke-width: 2; stroke: #000000" points="461.626,514 461.626,368 493.994,368 "/>
      <polygon style="fill: #000000; fill-opacity: 1; stroke-opacity: 1; stroke-width: 2; stroke: #000000" fill-rule="evenodd" points="493.994,373 503.994,368 493.994,363 "/>
    </g>
    <g>
      <polyline style="fill: none; stroke-opacity: 1; stroke-width: 2; stroke: #000000" points="345.599,349.2 345.599,255.2 396.326,255.2 "/>
      <polygon style="fill: #000000; fill-opacity: 1; stroke-opacity: 1; stroke-width: 2; stroke: #000000" fill-rule="evenodd" points="396.326,260.2 406.326,255.2 396.326,250.2 "/>
    </g>
    <g>
      <polyline style="fill: none; stroke-opacity: 1; stroke-width: 2; stroke: #000000" points="461.626,514 461.626,368.2 431.074,368.2 "/>
      <polygon style="fill: #000000; fill-opacity: 1; stroke-opacity: 1; stroke-width: 2; stroke: #000000" fill-rule="evenodd" points="431.074,363.2 421.074,368.2 431.074,373.2 "/>
    </g>
    <g>
      <polyline style="fill: none; stroke-opacity: 1; stroke-width: 2; stroke: #000000" points="582,349 582,255.2 530.126,255.2 "/>
      <polygon style="fill: #000000; fill-opacity: 1; stroke-opacity: 1; stroke-width: 2; stroke: #000000" fill-rule="evenodd" points="530.126,250.2 520.126,255.2 530.126,260.2 "/>
    </g>
    <g>
      <polyline style="fill: none; stroke-opacity: 1; stroke-width: 2; stroke: #000000" points="463.226,274.2 463.226,288.6 463.002,288.6 463.002,292 "/>
      <polygon style="fill: #000000; fill-opacity: 1; stroke-opacity: 1; stroke-width: 2; stroke: #000000" fill-rule="evenodd" points="458.002,292 463.002,302 468.002,292 "/>
    </g>
    <g>
      <polyline style="fill: none; stroke-opacity: 1; stroke-width: 2; stroke-dasharray: 4; stroke: #000000" points="482.977,341 482.977,427.5 481.601,427.5 481.601,509.528 "/>
      <polyline style="fill: none; stroke-opacity: 1; stroke-width: 2; stroke: #000000" points="476.601,501.764 481.601,511.764 486.601,501.764 "/>
    </g>
    <g>
      <polyline style="fill: none; stroke-opacity: 1; stroke-width: 2; stroke-dasharray: 4; stroke: #000000" points="463.226,236.2 463.226,219.6 462.974,219.6 462.974,207.472 "/>
      <polyline style="fill: none; stroke-opacity: 1; stroke-width: 2; stroke: #000000" points="467.974,215.236 462.974,205.236 457.974,215.236 "/>
    </g>
    <g>
      <polygon style="fill: #ffffff; fill-opacity: 1; stroke-opacity: 1; stroke-width: 2; stroke: #000000" fill-rule="evenodd" points="953,710 1128.4,710 1140.4,722 1140.4,792 953,792 "/>
      <polyline style="fill: none; stroke-opacity: 1; stroke-width: 1; stroke: #000000" points="1128.4,710 1128.4,722 1140.4,722 "/>
      <text font-size="12.8" style="fill: #000000; fill-opacity: 1; stroke: none;text-anchor:start;font-family:monospace;font-style:normal;font-weight:normal" x="960" y="734.881">
        <tspan x="960" y="734.881">"Call to C++" can call</tspan>
        <tspan x="960" y="750.881">- C++ signal change</tspan>
        <tspan x="960" y="766.881">- C++ property setter</tspan>
        <tspan x="960" y="782.881">- Request update</tspan>
      </text>
    </g>
    <g>
      <rect style="fill: #0cf2a6; fill-opacity: 1; stroke-opacity: 1; stroke-width: 2; stroke: #0cf2a6" x="1000.8" y="346.999" width="126.35" height="38.002" rx="0" ry="0"/>
      <text font-size="12.8016" style="fill: #000000; fill-opacity: 1; stroke: none;text-anchor:middle;font-family:sans-serif;font-style:normal;font-weight:normal" x="1063.98" y="369.882">
        <tspan x="1063.98" y="369.882">Rust Thread Idle</tspan>
      </text>
    </g>
    <g>
      <rect style="fill: #b921b4; fill-opacity: 1; stroke-opacity: 1; stroke-width: 2; stroke: #b921b4" x="1021.5" y="274.999" width="85.05" height="38.002" rx="0" ry="0"/>
      <text font-size="12.8016" style="fill: #ffffff; fill-opacity: 1; stroke: none;text-anchor:middle;font-family:sans-serif;font-style:normal;font-weight:normal" x="1064.03" y="297.882">
        <tspan x="1064.03" y="297.882">Rust code</tspan>
      </text>
    </g>
    <g>
      <rect style="fill: #005896; fill-opacity: 1; stroke-opacity: 1; stroke-width: 2; stroke: #005896" x="1001.78" y="193" width="124.45" height="38" rx="0" ry="0"/>
      <text font-size="12.8" style="fill: #ffffff; fill-opacity: 1; stroke: none;text-anchor:middle;font-family:sans-serif;font-style:normal;font-weight:normal" x="1064" y="215.881">
        <tspan x="1064" y="215.881">Request Update</tspan>
      </text>
    </g>
    <g>
      <rect style="fill: #626875; fill-opacity: 1; stroke-opacity: 1; stroke-width: 2; stroke: #626875" x="854.1" y="193" width="111.8" height="38" rx="0" ry="0"/>
      <text font-size="12.8" style="fill: #ffffff; fill-opacity: 1; stroke: none;text-anchor:middle;font-family:sans-serif;font-style:normal;font-weight:normal" x="910" y="215.881">
        <tspan x="910" y="215.881">Post to Queue</tspan>
      </text>
    </g>
    <g>
      <polygon style="fill: #ffffff; fill-opacity: 1; stroke-opacity: 1; stroke-width: 2; stroke: #000000" fill-rule="evenodd" points="957,631 1240.2,631 1252.2,643 1252.2,697 957,697 "/>
      <polyline style="fill: none; stroke-opacity: 1; stroke-width: 1; stroke: #000000" points="1240.2,631 1240.2,643 1252.2,643 "/>
      <text font-size="12.8" style="fill: #000000; fill-opacity: 1; stroke: none;text-anchor:start;font-family:monospace;font-style:normal;font-weight:normal" x="964" y="655.881">
        <tspan x="964" y="655.881">"Process queues" calls rust handlers</tspan>
        <tspan x="964" y="671.881">- handle_property_change</tspan>
        <tspan x="964" y="687.881">- handle_update_request</tspan>
      </text>
    </g>
    <g>
      <polyline style="fill: none; stroke-opacity: 1; stroke-width: 2; stroke: #000000" points="1063.98,347 1063.98,330 1064.03,330 1064.03,324 "/>
      <polygon style="fill: #000000; fill-opacity: 1; stroke-opacity: 1; stroke-width: 2; stroke: #000000" fill-rule="evenodd" points="1069.03,324 1064.03,314 1059.03,324 "/>
    </g>
    <g>
      <polyline style="fill: none; stroke-opacity: 1; stroke-width: 2; stroke: #000000" points="1106.55,294 1155,294 1155,366 1138.15,366 "/>
      <polygon style="fill: #000000; fill-opacity: 1; stroke-opacity: 1; stroke-width: 2; stroke: #000000" fill-rule="evenodd" points="1138.15,361 1128.15,366 1138.15,371 "/>
    </g>
    <g>
      <polyline style="fill: none; stroke-opacity: 1; stroke-width: 2; stroke: #000000" points="1064.03,275 1064.03,253 1064,253 1064,242 "/>
      <polygon style="fill: #000000; fill-opacity: 1; stroke-opacity: 1; stroke-width: 2; stroke: #000000" fill-rule="evenodd" points="1069,242 1064,232 1059,242 "/>
    </g>
    <g>
      <polyline style="fill: none; stroke-opacity: 1; stroke-width: 2; stroke: #000000" points="1001.78,212 983.838,212 983.838,212 976.9,212 "/>
      <polygon style="fill: #000000; fill-opacity: 1; stroke-opacity: 1; stroke-width: 2; stroke: #000000" fill-rule="evenodd" points="976.9,207 966.9,212 976.9,217 "/>
    </g>
    <g>
      <polyline style="fill: none; stroke-opacity: 1; stroke-width: 2; stroke: #000000" points="910,231 910,294 1010.5,294 "/>
      <polygon style="fill: #000000; fill-opacity: 1; stroke-opacity: 1; stroke-width: 2; stroke: #000000" fill-rule="evenodd" points="1010.5,299 1020.5,294 1010.5,289 "/>
    </g>
    <g>
      <polyline style="fill: none; stroke-opacity: 1; stroke-width: 2; stroke-dasharray: 4; stroke: #000000" points="910,193 910,168.167 491.496,168.167 "/>
      <polyline style="fill: none; stroke-opacity: 1; stroke-width: 2; stroke: #000000" points="499.26,163.167 489.26,168.167 499.26,173.167 "/>
    </g>
    <g>
      <polygon style="fill: #ffffff; fill-opacity: 1; stroke-opacity: 1; stroke-width: 2; stroke: #000000" fill-rule="evenodd" points="900,399 1244.8,399 1256.8,411 1256.8,513 900,513 "/>
      <polyline style="fill: none; stroke-opacity: 1; stroke-width: 1; stroke: #000000" points="1244.8,399 1244.8,411 1256.8,411 "/>
      <text font-size="12.8" style="fill: #000000; fill-opacity: 1; stroke: none;text-anchor:start;font-family:monospace;font-style:normal;font-weight:normal" x="907" y="423.881">
        <tspan x="907" y="423.881">"Call rust code" can</tspan>
        <tspan x="907" y="439.881">- Call other rust invokables</tspan>
        <tspan x="907" y="455.881">- Start a rust thread, pass update requester</tspan>
        <tspan x="907" y="471.881">- Modify RustObj fields</tspan>
        <tspan x="907" y="487.881">- Access C++ property getter</tspan>
        <tspan x="907" y="503.881">- borrowRustObj from a sub object</tspan>
      </text>
    </g>
    <g>
      <polygon style="fill: #626875; fill-opacity: 1; stroke-opacity: 1; stroke-width: 2; stroke: #626875" fill-rule="evenodd" points="152.943,707 288.516,707 273.957,747 138.384,747 "/>
      <text font-size="12.8" style="fill: #ffffff; fill-opacity: 1; stroke: none;text-anchor:middle;font-family:sans-serif;font-style:normal;font-weight:normal" x="213.45" y="730.881">
        <tspan x="213.45" y="730.881">Construct Object</tspan>
      </text>
    </g>
    <g>
      <rect style="fill: #f02567; fill-opacity: 1; stroke-opacity: 1; stroke-width: 2; stroke: #f02567" x="332.35" y="708.2" width="102.05" height="38" rx="0" ry="0"/>
      <text font-size="12.8" style="fill: #ffffff; fill-opacity: 1; stroke: none;text-anchor:middle;font-family:sans-serif;font-style:normal;font-weight:normal" x="383.375" y="731.081">
        <tspan x="383.375" y="731.081">Lock rustObj</tspan>
      </text>
    </g>
    <g>
      <polyline style="fill: none; stroke-opacity: 1; stroke-width: 2; stroke: #000000" points="566.052,727 671,727 671,651 "/>
      <polygon style="fill: #000000; fill-opacity: 1; stroke-opacity: 1; stroke-width: 2; stroke: #000000" fill-rule="evenodd" points="676,651 671,641 666,651 "/>
    </g>
    <g>
      <polyline style="fill: none; stroke-opacity: 1; stroke-width: 2; stroke: #000000" points="281.237,727 306.793,727 306.793,727.2 321.35,727.2 "/>
      <polygon style="fill: #000000; fill-opacity: 1; stroke-opacity: 1; stroke-width: 2; stroke: #000000" fill-rule="evenodd" points="321.35,732.2 331.35,727.2 321.35,722.2 "/>
    </g>
    <g>
      <rect style="fill: #b921b4; fill-opacity: 1; stroke-opacity: 1; stroke-width: 2; stroke: #b921b4" x="479.952" y="707.999" width="86.1" height="38.002" rx="0" ry="0"/>
      <text font-size="12.8016" style="fill: #ffffff; fill-opacity: 1; stroke: none;text-anchor:middle;font-family:sans-serif;font-style:normal;font-weight:normal" x="523.002" y="730.882">
        <tspan x="523.002" y="730.882">handleInit</tspan>
      </text>
    </g>
    <g>
      <polyline style="fill: none; stroke-opacity: 1; stroke-width: 2; stroke: #000000" points="435.406,727.2 457.679,727.2 457.679,727 468.952,727 "/>
      <polygon style="fill: #000000; fill-opacity: 1; stroke-opacity: 1; stroke-width: 2; stroke: #000000" fill-rule="evenodd" points="468.952,732 478.952,727 468.952,722 "/>
    </g>
    <g>
      <polygon style="fill: #ffffff; fill-opacity: 1; stroke-opacity: 1; stroke-width: 2; stroke: #000000" fill-rule="evenodd" points="906,525 1243.1,525 1255.1,537 1255.1,623 906,623 "/>
      <polyline style="fill: none; stroke-opacity: 1; stroke-width: 1; stroke: #000000" points="1243.1,525 1243.1,537 1255.1,537 "/>
      <text font-size="12.8" style="fill: #000000; fill-opacity: 1; stroke: none;text-anchor:start;font-family:monospace;font-style:normal;font-weight:normal" x="913" y="549.881">
        <tspan x="913" y="549.881">"borrowRustObj" retrieves the RustObj</tspan>
        <tspan x="913" y="565.881">of an object and locks rustObj until</tspan>
        <tspan x="913" y="581.881">the Borrow&lt;T&gt; is dropped.</tspan>
        <tspan x="913" y="597.881">- It should only be used on sub objects</tspan>
        <tspan x="913" y="613.881">- Fails if already locked Result&lt;Borrow&lt;T&gt;&gt;</tspan>
      </text>
    </g>
    <g>
      <polygon style="fill: #ffffff; fill-opacity: 1; stroke-opacity: 1; stroke-width: 2; stroke: #000000" fill-rule="evenodd" points="591,748 897.3,748 909.3,760 909.3,798 591,798 "/>
      <polyline style="fill: none; stroke-opacity: 1; stroke-width: 1; stroke: #000000" points="897.3,748 897.3,760 909.3,760 "/>
      <text font-size="12.8" style="fill: #000000; fill-opacity: 1; stroke: none;text-anchor:start;font-family:monospace;font-style:normal;font-weight:normal" x="598" y="772.881">
        <tspan x="598" y="772.881">"handleInit" is triggered after initCpp</tspan>
        <tspan x="598" y="788.881">allowing for thread / signal at startup</tspan>
      </text>
    </g>
  </g>
</svg>
